<?xml version="1.0" encoding="utf-8"?>
<!-- Generator: Adobe Illustrator 21.0.0, SVG Export Plug-In . SVG Version: 6.00 Build 0)  -->
<svg version="1.1" id="图层_1" xmlns="http://www.w3.org/2000/svg" xmlns:xlink="http://www.w3.org/1999/xlink" x="0px" y="0px"
	 viewBox="0 0 1024 1024" style="enable-background:new 0 0 1024 1024;" xml:space="preserve">
<style type="text/css">
	.st0{fill:#F4F4F4;stroke:#999999;stroke-width:33;stroke-miterlimit:10;}
	.st1{fill:#999999;}
</style>
<circle class="st0" cx="509.5" cy="514.9" r="450"/>
<path class="st1" d="M660.7,446.5c-3.1-11.2-4.2-21.2-4.3-30.3c0-31.6,12.1-47.2,13.6-49.3c3.5-5,4.7-11.5,1.9-17
	c-4.9-9.4-15.6-9.8-17.6-9.8c-13.6-0.2-75.8,3.5-96.2,67.3c-3.8,12.1-5.2,23.6-5.5,34c-8.1-12.2-15-29.7-15-54.7v-2.5
	c1.3-70.2,16-111.9,15.6-112.1c2-5.9,0.6-12.4-3.8-16.9s-10.8-6.2-16.7-4.4c-1,0.4-122,35-127.4,157.5c-0.2,6.8-0.3,13.3-0.3,19.4
	c1.3,29.9,3.4,52.3,6.4,69.2c-13.1-12.1-24.4-30.6-24.1-58.4c0-5.8,1.3-18.7,1.3-18.7c0.8-4.8-0.3-9.9-3.9-13.7
	c-6.2-6.8-16.7-7.3-23.5-1.1l-0.1,0.1c-1.7,1.6-53.4,49-53.5,138.7c0,7.3,0.3,14.9,1.1,22.6c10.3,104,102.9,185.4,207,185.6
	c1.9,0,3.7,0,5.4-0.1c105.9-3.4,188.8-90.2,189.4-182.6v-1.4l0,0C710,472.8,665.7,479.6,660.7,446.5z M677.5,569.3
	c0.6,72-69.3,147.4-157,149.3c-1.6,0.1-3,0.1-4.5,0.1c-86.6,0.3-165.9-70-173.9-155.5c-0.7-6.8-1-13.3-1-19.5
	c0-32.3,7.8-57.4,16.7-75.9c16.4,67.5,84.4,82.8,85.4,82.9c0,0,1.3,0.3,3.4,0.4c8.5,0.2,15.7-6.3,16.7-14.7
	c0.8-6.9-8.2-16.7-8.2-16.7c-3.8-4.7-16.9-26.7-16.7-91.8c0-5.8,0.1-11.9,0.3-18.3c1.2-62.2,44.3-96.8,74.6-113.5
	c-4.1,21.1-8.2,50.9-8.9,87.6c0,1,0,2.1,0,3.2c0,81.8,60.9,109.5,63.1,110.1c6.1,2.5,13,1.3,17.8-3.1c4.8-4.4,6.5-11.3,4.4-17.5
	c0,0-4.1-12.1-4.1-29.9c0-9,1.2-19,4.2-29.2c7.2-23.8,23.9-34.7,39-39.6c-3.2,10.5-5.8,23.4-5.8,38.6c0,12,1.6,25.2,5.5,39.2
	c21.8,62.7,47.9,30.3,48.9,112.9l0,1H677.5z"/>
</svg>
